<svg xmlns="http://www.w3.org/2000/svg" viewBox="0 0 512.001 512.001" width="18" height="18" xml:space="preserve" transform="scale(-1 1)"><path class="inner" d="M367.924 8.521c70.94 127.548 25.05 288.445-102.49 359.385-79.869 44.425-177.026 44.425-256.895 0C79.572 495.352 240.478 541.08 367.924 470.047s173.174-231.939 102.141-359.385A264.164 264.164 0 0 0 367.924 8.521z"/><path class="outer" d="M239.353 511.984c-98.886-.077-190.011-53.592-238.252-139.92-2.309-4.098-.869-9.296 3.229-11.605a8.541 8.541 0 0 1 8.384 0c123.442 68.622 279.141 24.181 347.763-99.27 42.951-77.262 42.951-171.232 0-248.494a8.528 8.528 0 0 1 3.28-11.596 8.516 8.516 0 0 1 8.324.009c131.536 73.368 178.696 239.471 105.328 371.007-48.139 86.319-139.221 139.826-238.056 139.869zM31.842 388.661c82.587 114.495 242.342 140.363 356.837 57.776S529.042 204.095 446.455 89.6a255.691 255.691 0 0 0-57.776-57.776c58.066 139.008-7.557 298.772-146.566 356.837a272.779 272.779 0 0 1-210.271 0z"/></svg>